<?xml version="1.0" encoding="UTF-8"?>
<!DOCTYPE svg PUBLIC "-//W3C//DTD SVG 1.1//EN" "http://www.w3.org/Graphics/SVG/1.1/DTD/svg11.dtd">
<!-- Creator: CorelDRAW 2021 (64-Bit) -->
<svg xmlns="http://www.w3.org/2000/svg" xml:space="preserve" width="171.289mm" height="96.9362mm" version="1.1" style="shape-rendering:geometricPrecision; text-rendering:geometricPrecision; image-rendering:optimizeQuality; fill-rule:evenodd; clip-rule:evenodd"
viewBox="0 0 17128.9 9693.62"
 xmlns:xlink="http://www.w3.org/1999/xlink"
 xmlns:xodm="http://www.corel.com/coreldraw/odm/2003">
 <defs>
  <style type="text/css">
   <![CDATA[
    .fil0 {fill:white}
   ]]>
  </style>
 </defs>
 <g id="Layer_x0020_1">
  <metadata id="CorelCorpID_0Corel-Layer"/>
  <g id="alpha_x0020_logo_x0020_final.cdr">
   <path class="fil0" d="M14866.81 6806.47l3.65 0.39c9.82,0.95 19.66,1.43 29.53,1.43l781.27 0c168.47,0 306.6,-138.14 306.6,-306.59 0,-168.48 -138.11,-306.6 -306.6,-306.6l-1141.85 0c-550.03,0 -1000.32,450.28 -1000.32,1000.3 0,550.03 450.31,1000.29 1000.32,1000.29l2282.76 0c168.48,0 306.58,-138.12 306.58,-306.59l0 -1786.36c0,-291.95 -64.05,-589.38 -307.49,-776.23 -310.36,-238.23 -838.02,-224.09 -1212.38,-224.09l-1783.2 0c-168.49,0 -306.6,138.12 -306.6,306.6 0,168.48 138.15,306.58 306.6,306.58l1984.15 0c264.56,0 494.57,138.21 494.57,425.8l0 1441.14 -986.96 -0.02c-9.84,0 -19.69,0.49 -29.57,1.44l-3.64 0.32 -546.62 0c-214.01,0 -388.88,-174.87 -388.88,-388.9 0,-214.01 174.86,-388.91 388.88,-388.91l129.2 0zm-2481.29 233.04l-0.29 3.09c-0.81,10.12 -1.21,20.28 -1.21,30.32l0 743.78c0,241.29 219.87,412.71 450.56,412.71 230.67,0 450.57,-171.31 450.57,-412.71l0 -1715.69c0,-1012.68 -869.12,-997.91 -1642.57,-997.91l-499.9 0c-170.85,0 -335.34,126.42 -335.34,305.75 0,179.3 164.43,305.75 335.34,305.75l715.93 0c266.18,0 524.92,125.91 525.41,424.89l1.5 900.02zm-2091.02 -2798.06c-235.01,0 -448.71,180.12 -448.71,422.71l0 3142.51c0,242.58 213.72,422.74 448.71,422.74 235,0 448.72,-179.97 448.72,-422.74l0 -3142.51c0,-242.78 -213.7,-422.71 -448.72,-422.71zm-1576.03 2968.64l-0.64 5.12c-33.13,250.31 -257.72,359.45 -489.04,359.45l-634.35 0c-168.58,0 -306.58,139.06 -306.58,307.64 0,168.6 137.68,307.64 306.58,307.64l433.4 0c779.92,0 1505.03,-12.45 1505.03,-1003.24l0 -1080.27c0,-991.45 -734.07,-1003.33 -1512.7,-1003.33l-1522.45 0c-213.88,0 -396.28,203.64 -396.28,412.91l0 2745.5c9.77,722.02 57.19,1188.46 907.79,1188.46 243.14,0 615.52,41.85 615.52,-319.45 0,-171.36 -137.19,-309.63 -308.14,-321.25 -435.49,-5.78 -378.61,-234.54 -383.01,-547.28l1.41 -2543.53 1286.13 0c264.94,0 497.33,138.58 497.33,426.79l0 1064.84zm-3951.73 -751.3l0 -1839.66c0,-228.31 -189.92,-411.48 -416.77,-411.48 -226.84,0 -416.76,183.17 -416.76,411.48l0.02 2303.22c9.57,707.33 45.21,1273.34 907.75,1273.34l669.08 0c174.96,0 318.35,-143.43 318.35,-318.37 0,-171.2 -137.28,-314.74 -308.15,-320.16l-286.55 -0.04c-307.87,0 -472,-261.37 -468.32,-545.95l0 -552.38 1.35 0zm-3419.03 347.68l3.66 0.38c9.84,0.94 19.66,1.44 29.55,1.44l781.27 0c168.45,0 306.6,-138.14 306.6,-306.59 0,-168.5 -138.5,-306.6 -306.6,-306.6l-1141.87 0c-549.65,0 -1000.3,450.28 -1000.3,1000.3 0,550.03 450.29,1000.29 1000.3,1000.29l2282.77 0c168.47,0 306.6,-138.1 306.6,-306.59l0 -1786.36c0,-291.93 -64.23,-589.57 -307.49,-776.23 -310.16,-238.06 -838.43,-224.09 -1212.43,-224.09l-1783.17 0c-168.1,0 -306.6,138.14 -306.6,306.6 0,168.46 138.14,306.58 306.6,306.58l1984.17 0c264.55,0 494.57,138.61 494.57,425.8l0 1441.14 -986.97 -0.02c-9.46,0 -20.09,0.63 -29.59,1.44l-3.64 0.32 -546.58 0c-213.65,0 -388.9,-174.85 -388.9,-388.9 0,-214.02 174.87,-388.91 388.9,-388.91l129.15 0z"/>
   <path class="fil0" d="M9242.16 4192.52c-3.45,-35.33 0.82,-70.23 4.57,-104.35 236.2,-2150.28 6039.92,-1800.54 7688.39,-4088.17 185.79,435.75 421.9,1646.53 -274.08,1953.25 -2143.87,944.8 -6955.19,435.8 -7361.27,2240.3 -3.26,32.67 -51.38,62.43 -57.61,-1.03zm7712.21 -2033.85c-1983.65,1040.67 -7152.56,474.45 -7516.63,2037.35 -8.11,52.63 44.02,48.16 58.72,1.06 549.82,-1246.16 4510.35,-451.08 6720.01,-889.99 523.01,-103.87 729.76,-762.27 737.9,-1148.42zm-7295.6 2041.32c495,-1051.77 4477.81,-200.76 6479.13,-621.27 -280.64,300.28 -835.72,614.37 -1239.03,634.98 -1688.14,107.82 -4523.67,-694.95 -5157.48,-47.89 -19.16,17.13 -34.22,38.54 -45.73,54.9 -16.5,23.45 -48.76,25.1 -36.89,-20.72z"/>
   <path class="fil0" d="M8193.6 9294.4c-26.92,12.33 -59.43,20.18 -100.93,20.18 -95.31,0 -165.96,-70.66 -165.96,-192.87 0,-109.91 60.55,-194.02 164.84,-194.02 45.98,0 76.25,10.1 97.56,20.2l26.92 -126.71c-26.92,-11.23 -76.25,-23.55 -130.08,-23.55 -206.35,0 -327.46,143.54 -327.46,330.8 0,198.47 118.89,317.36 301.65,317.36 66.18,0 123.36,-13.48 151.39,-26.93l-17.93 -124.46zm343.97 -497.89c-169.32,0 -296.03,118.86 -296.03,328.56 0,202.97 121.11,321.83 289.3,321.83 139.07,0 291.58,-91.94 291.58,-329.68 0,-189.52 -109.91,-320.71 -284.85,-320.71zm116.63 324.08c0,111.01 -42.6,204.1 -121.11,204.1 -80.73,0 -123.36,-91.96 -123.36,-202.97 0,-95.33 32.53,-202.97 124.49,-202.97 85.23,0 119.98,104.28 119.98,201.84zm1112.14 -65.05c0,-180.54 -84.11,-257.9 -192.87,-257.9 -69.53,0 -133.46,28.03 -185.04,104.28l-2.23 0c-24.67,-63.93 -82.98,-104.28 -159.24,-104.28 -93.08,0 -148.03,51.58 -177.19,96.43l-3.35 0 -7.85 -84.11 -141.29 0c2.23,55.14 4.48,114.57 4.48,187.65l0 436.96 162.59 0 0 -376.4c0,-83.37 53.83,-125.97 99.81,-125.97 65.05,0 88.58,59.43 88.58,133.44l0 368.93 162.62 0 0 -379.03c0,-87.46 51.58,-123.34 97.55,-123.34 66.16,0 90.84,59.43 90.84,149.14l0 353.23 162.59 0 0 -379.03zm633.31 -245.58l-165.96 0 0 384.64c0,70.63 -48.23,116.61 -102.04,116.61 -68.4,0 -95.33,-59.43 -95.33,-153.61l0 -347.64 -165.97 0 0 372.31c0,187.27 80.76,264.63 199.62,264.63 96.44,0 153.62,-54.93 179.42,-95.31l3.37 0 7.83 82.98 144.66 0c-2.22,-52.7 -5.6,-116.63 -5.6,-190.64l0 -433.97zm643.39 241.48c0,-174.19 -88.58,-253.8 -202.96,-253.8 -90.84,0 -152.52,51.58 -180.55,97.56l-3.37 0 -7.83 -85.24 -143.54 0c2.23,55.14 4.48,114.57 4.48,187.65l0 436.96 165.97 0 0 -371.74c0,-94.75 61.68,-129.51 106.53,-129.51 70.63,0 95.31,60.56 95.31,136.79l0 364.46 165.96 0 0 -383.13zm278.94 -411.92c0,-51.6 -35.88,-88.6 -89.71,-88.6 -51.58,0 -88.58,37 -88.58,88.6 0,50.46 35.87,88.59 88.58,88.59 51.58,0 89.71,-34.78 89.71,-88.59zm-5.6 170.44l-165.97 0 0 624.61 165.97 0 0 -624.61zm509.95 484.44c-26.93,12.33 -59.43,20.18 -100.93,20.18 -95.31,0 -165.97,-70.66 -165.97,-192.87 0,-109.91 60.56,-194.02 164.84,-194.02 45.98,0 76.26,10.1 97.56,20.2l26.93 -126.71c-26.93,-11.23 -76.26,-23.55 -130.09,-23.55 -206.34,0 -327.45,143.54 -327.45,330.8 0,198.47 118.88,317.36 301.65,317.36 66.18,0 123.36,-13.48 151.39,-26.93l-17.93 -124.46zm550.31 -236.61c0,-136.81 -52.71,-260.15 -246.7,-260.15 -97.56,0 -174.94,28.03 -216.42,52.7l31.38 107.64c40.38,-24.66 96.46,-42.61 153.64,-42.61 90.83,0 112.13,47.11 112.13,108.79 -198.49,0 -340.9,75.13 -340.9,235.47 0,100.94 71.78,187.27 187.27,187.27 69.53,0 130.08,-28.03 165.96,-77.36l3.37 0 10.11 65.03 149.13 0c-6.72,-38.13 -8.97,-93.08 -8.97,-148.01l0 -228.77zm-161.49 162.58c0,79.63 -65.03,107.66 -104.28,107.66 -41.49,0 -78.49,-25.78 -78.49,-85.23 0,-90.81 93.06,-112.14 182.77,-112.14l0 89.71zm562.66 -422.73c-206.34,0 -327.46,143.54 -327.46,330.8 0,155.87 72.91,262.4 192.9,301.66l-53.83 107.63c63.93,5.63 96.43,22.43 96.43,49.36 0,25.78 -22.43,35.88 -45.98,35.88 -21.3,0 -47.08,-7.86 -69.51,-20.18l-22.42 67.28c23.53,13.45 59.43,23.55 96.43,23.55 75.13,0 144.64,-29.17 144.64,-108.78 0,-51.58 -42.6,-85.24 -89.71,-91.96l26.93 -48.21c7.85,0 16.82,1.13 25.78,1.13 66.18,0 123.36,-13.48 151.39,-26.93l-17.93 -124.46c-26.93,12.33 -59.43,20.18 -102.06,20.18 -94.19,0 -164.84,-70.66 -164.84,-192.87 0,-109.91 60.55,-194.02 164.84,-194.02 45.98,0 76.26,10.1 97.56,20.2l26.92 -126.71c-31.4,-12.35 -80.75,-23.55 -128.96,-23.55l-1.12 0zm657.96 260.15c0,-136.81 -52.71,-260.15 -246.7,-260.15 -97.56,0 -174.94,28.03 -216.42,52.7l31.38 107.64c40.37,-24.66 96.45,-42.61 153.64,-42.61 90.83,0 112.13,47.11 112.13,108.79 -198.49,0 -340.91,75.13 -340.91,235.47 0,100.94 71.79,187.27 187.27,187.27 69.53,0 130.09,-28.03 165.97,-77.36l3.37 0 10.1 65.03 149.14 0c-6.72,-38.13 -8.97,-93.08 -8.97,-148.01l0 -228.77zm-161.49 162.58c0,79.63 -65.03,107.66 -104.29,107.66 -41.48,0 -78.48,-25.78 -78.48,-85.23 0,-90.81 93.06,-112.14 182.77,-112.14l0 89.71zm19.07 -659.35c-2.25,42.6 -12.32,52.7 -31.4,52.7 -16.83,0 -33.63,-11.2 -52.7,-22.43 -24.68,-13.45 -48.21,-25.8 -78.49,-25.8 -61.68,0 -98.68,59.46 -96.46,153.64l79.64 0c1.12,-37 13.45,-56.06 31.4,-56.06 16.8,0 28.03,8.96 50.45,21.31 23.56,12.32 48.23,25.78 78.49,25.78 62.8,0 98.68,-45.98 96.45,-149.14l-77.38 0zm509.93 235.49c-169.31,0 -296.03,118.86 -296.03,328.56 0,202.97 121.12,321.83 289.31,321.83 139.06,0 291.57,-91.94 291.57,-329.68 0,-189.52 -109.91,-320.71 -284.85,-320.71zm116.64 324.08c0,111.01 -42.61,204.1 -121.11,204.1 -80.74,0 -123.36,-91.96 -123.36,-202.97 0,-95.33 32.52,-202.97 124.48,-202.97 85.23,0 119.99,104.28 119.99,201.84zm837.41 -310.63l-78.51 302.78c-13.45,54.93 -24.65,105.41 -34.75,159.24l-3.38 0c-10.08,-53.83 -21.3,-105.41 -34.75,-159.24l-81.86 -302.78 -178.29 0 209.69 624.61 160.34 0 213.07 -624.61 -171.56 0zm388.84 -170.44c0,-51.6 -35.88,-88.6 -89.71,-88.6 -51.58,0 -88.58,37 -88.58,88.6 0,50.46 35.87,88.59 88.58,88.59 51.58,0 89.71,-34.78 89.71,-88.59zm-5.6 170.44l-165.97 0 0 624.61 165.97 0 0 -624.61zm468.45 21.31c-35.88,-19.06 -90.84,-34.76 -154.74,-34.76 -139.06,0 -228.77,85.21 -228.77,197.37 0,68.38 42.6,134.56 159.24,181.64 68.4,29.18 89.7,49.36 89.7,87.49 0,38.12 -28.02,62.78 -86.33,62.78 -51.6,0 -113.26,-22.43 -145.79,-41.48l-31.4 119.98c41.5,24.68 107.66,41.51 176.07,41.51 155.86,0 245.57,-78.51 245.57,-197.37 0,-86.36 -49.33,-146.91 -154.74,-190.64 -71.78,-30.28 -95.33,-48.23 -95.33,-82.99 0,-33.62 26.92,-59.43 77.38,-59.43 47.1,0 90.83,17.95 117.74,32.53l31.4 -116.63zm623.21 -21.31l-165.96 0 0 384.64c0,70.63 -48.23,116.61 -102.04,116.61 -68.41,0 -95.33,-59.43 -95.33,-153.61l0 -347.64 -165.97 0 0 372.31c0,187.27 80.76,264.63 199.62,264.63 96.43,0 153.62,-54.93 179.42,-95.31l3.37 0 7.83 82.98 144.66 0c-2.22,-52.7 -5.6,-116.63 -5.6,-190.64l0 -433.97zm576.11 247.83c0,-136.81 -52.7,-260.15 -246.7,-260.15 -97.56,0 -174.94,28.03 -216.42,52.7l31.38 107.64c40.38,-24.66 96.46,-42.61 153.64,-42.61 90.83,0 112.14,47.11 112.14,108.79 -198.5,0 -340.91,75.13 -340.91,235.47 0,100.94 71.78,187.27 187.27,187.27 69.53,0 130.08,-28.03 165.96,-77.36l3.38 0 10.1 65.03 149.14 0c-6.73,-38.13 -8.98,-93.08 -8.98,-148.01l0 -228.77zm-161.49 162.58c0,79.63 -65.03,107.66 -104.28,107.66 -41.48,0 -78.49,-25.78 -78.49,-85.23 0,-90.81 93.06,-112.14 182.77,-112.14l0 89.71zm434.82 -687.38l-165.96 0 0 901.58 165.96 0 0 -901.58z"/>
  </g>
 </g>
</svg>
