<?xml version="1.0" encoding="UTF-8"?>
<!DOCTYPE svg PUBLIC "-//W3C//DTD SVG 1.1//EN" "http://www.w3.org/Graphics/SVG/1.1/DTD/svg11.dtd">
<!-- Creator: CorelDRAW 2021 (64-Bit) -->
<svg xmlns="http://www.w3.org/2000/svg" xml:space="preserve" width="78.8803mm" height="42.3683mm" version="1.1" style="shape-rendering:geometricPrecision; text-rendering:geometricPrecision; image-rendering:optimizeQuality; fill-rule:evenodd; clip-rule:evenodd"
viewBox="0 0 1610.28 864.91"
 xmlns:xlink="http://www.w3.org/1999/xlink"
 xmlns:xodm="http://www.corel.com/coreldraw/odm/2003">
 <defs>
  <style type="text/css">
   <![CDATA[
    .fil0 {fill:#8FC74A}
   ]]>
  </style>
 </defs>
 <g id="Camada_x0020_1">
  <metadata id="CorelCorpID_0Corel-Layer"/>
  <path class="fil0" d="M0.26 855.87c-0.7,-7.21 0.17,-14.34 0.93,-21.3 48.22,-438.96 1233,-367.57 1569.52,-834.57 37.93,88.95 86.13,336.13 -55.95,398.74 -437.65,192.87 -1419.85,88.97 -1502.75,457.34 -0.67,6.67 -10.49,12.74 -11.76,-0.21zm1574.39 -415.19c-404.95,212.44 -1460.14,96.86 -1534.46,415.91 -1.66,10.74 8.99,9.83 11.99,0.22 112.24,-254.39 920.75,-92.08 1371.84,-181.68 106.77,-21.2 148.97,-155.61 150.64,-234.44zm-1489.34 416.72c101.05,-214.71 914.11,-40.98 1322.66,-126.83 -57.29,61.3 -170.61,125.42 -252.94,129.63 -344.62,22.01 -923.47,-141.87 -1052.86,-9.78 -3.91,3.5 -6.99,7.87 -9.34,11.21 -3.37,4.79 -9.95,5.12 -7.53,-4.23z"/>
 </g>
</svg>
